<?xml version="1.0" encoding="UTF-8"?>
<svg id="Layer_1" data-name="Layer 1" xmlns="http://www.w3.org/2000/svg" viewBox="0 0 1000 1000">
  <defs>
    <style>
      .cls-1 {
        fill: #ebebeb;
      }
    </style>
  </defs>
  <path class="cls-1" d="M7.28,228.52c15.05-3.3,29.76-3.5,44.24-2.16,29.28,2.7,56.71,6.55,86.07,11,79.69,12.09,158.11,21.79,238.54,28.27,27.48,2.21,52.86,2.04,79.84.93,25.3-2.3,49.56-5.91,73.34-14.59,26.15-8.47,46.47-23.94,67.33-42.71l-307.02,688.45,88.88-38.98c102.82-45.09,213.43-67.2,326.13-66.74,99.1.74,195.84,19.1,288.48,55.62v146.02s-986.15-.08-986.15-.08l.32-765.02Z"/>
  <path class="cls-1" d="M633.57,135.99c-33.72,20.09-67.52,35-104.53,46.28-90.09,27.11-180.09,17.2-271.42-.89l-108.84-21.56c-30.55-5.67-59.84-10.35-90.72-13.67-17.56-.97-34.06-1.46-51.18,1.6V6.38s986.17.12,986.17.12l.05,766.45c-89.62-31.86-181.77-48.86-276.78-50.55-45.21-.13-87.59,3.6-132.15,10.62-60.33,9.79-118.25,24.95-176.66,44.26L701.93,86.68l-68.35,49.3Z"/>
</svg>
