<?xml version="1.0" encoding="UTF-8"?>
<svg id="Layer_1" data-name="Layer 1" xmlns="http://www.w3.org/2000/svg" viewBox="0 0 400 400">
  <defs>
    <style>
      .cls-1 {
        fill: #ebebeb;
      }
    </style>
  </defs>
  <path class="cls-1" d="M398.57,1.43v308.41c-32.17-11.54-65.79-18.25-100.28-20.01-51.49-2.61-101.69,10.48-135.54,21.74L281.58,33.17l-28.21,20.68c-51.77,30.12-93.92,27.6-136.47,20.58C78.2,68.05,23.26,53.34,1.43,58.34V1.43h397.14Z"/>
  <path class="cls-1" d="M296.86,317.88c35.13,1.79,69.27,9.16,101.71,21.96v58.73H1.43l.41-307.74c14.82-4.65,54.28,5.49,114.87,11.69,40.43,4.14,95.25,12.1,123.03-21.28l-124.62,279.05,32.98-14.69c32.41-14.45,84.52-30.98,148.76-27.71Z"/>
</svg>