<?xml version="1.0" encoding="UTF-8"?>
<svg id="Layer_1" data-name="Layer 1" xmlns="http://www.w3.org/2000/svg" viewBox="0 0 800 763.93">
  <defs>
    <style>
      .cls-1 {
        fill: #26775c;
      }
    </style>
  </defs>
  <path class="cls-1" d="M418.5,759.33H8.53v-128.19h252.73L132.3,4.61h130.87l48.05,233.47c-28.75,40.63-45.64,90.25-45.64,143.8,0,89.9,47.6,168.69,118.98,212.54l7.57,36.71,26.37,128.19Z"/>
  <path class="cls-1" d="M549.38,131.41c-7.57,0-15.07.35-22.46,1.03h-.03c-97.02,8.93-177.45,75.11-207.22,164.46-8.03,24.07-12.37,49.82-12.37,76.58,0,61.79,23.17,118.18,61.27,160.95,39.66,44.53,95.51,74.31,158.32,80.09h.03c7.39.68,14.89,1.03,22.46,1.03,133.71,0,242.09-108.38,242.09-242.08s-108.38-242.08-242.09-242.08ZM432.73,373.49c0-64.43,52.23-116.66,116.65-116.66s116.66,52.23,116.66,116.66-52.23,116.66-116.66,116.66-116.65-52.23-116.65-116.66Z"/>
</svg>
