<?xml version="1.0" encoding="UTF-8"?>
<svg id="Layer_1" data-name="Layer 1" xmlns="http://www.w3.org/2000/svg" viewBox="0 0 400 400">
  <defs>
    <style>
      .cls-1 {
        fill: #ebebeb;
      }

      .cls-2 {
        fill: #1a1a1a;
      }
    </style>
  </defs>
  <path class="cls-1" d="M371.19,301.26c-5.13,8.66-10.9,16.9-17.25,24.65-18.64-4.36-37.71-7.04-57.08-8.03-64.24-3.27-116.35,13.27-148.76,27.71l-32.98,14.7L239.74,81.24c-27.77,33.38-82.6,25.42-123.03,21.28-35.1-3.6-63.11-8.52-83.34-11.11,6.69-10.26,14.31-19.86,22.74-28.69,20.4,3.77,42.43,8.67,60.79,11.7,42.54,7.02,84.7,9.54,136.47-20.58l28.21-20.68-118.83,278.4c33.85-11.26,84.05-24.35,135.54-21.74,24.82,1.26,49.19,5.09,72.9,11.44Z"/>
  <path class="cls-2" d="M353.94,325.91c-4.2,5.12-8.64,10.03-13.32,14.71-33.62,33.61-79.22,55.25-129.85,57.95h-21.54C89.31,393.24,8.99,314.18,1.67,214.81l.04-30.11s0-.04.01-.06c2.61-34.23,13.89-66.04,31.65-93.23,20.23,2.59,48.24,7.51,83.34,11.11,40.43,4.14,95.26,12.1,123.03-21.28l-124.62,279.05,32.98-14.7c32.41-14.44,84.52-30.98,148.76-27.71,19.37.99,38.44,3.67,57.08,8.03Z"/>
  <path class="cls-1" d="M1.13,200c0-5.15.2-10.25.58-15.3l-.04,30.11c-.36-4.89-.54-9.83-.54-14.81Z"/>
  <path class="cls-1" d="M210.77,398.57c-3.56.19-7.16.29-10.77.29s-7.21-.1-10.77-.29h21.54Z"/>
  <path class="cls-2" d="M398.57,189.04v21.92c-1.78,32.86-11.54,63.59-27.38,90.3-23.71-6.35-48.08-10.18-72.9-11.44-51.49-2.61-101.69,10.48-135.54,21.74L281.58,33.16l-28.21,20.68c-51.77,30.12-93.93,27.6-136.47,20.58-18.36-3.03-40.39-7.93-60.79-11.7,1.07-1.12,2.16-2.24,3.26-3.34C92.99,25.76,138.59,4.12,189.23,1.42h21.54c50.63,2.7,96.23,24.34,129.85,57.96,33.58,33.57,55.21,79.1,57.95,129.66Z"/>
  <path class="cls-1" d="M200,1.13c3.61,0,7.21.1,10.77.29h-21.54c3.56-.19,7.16-.29,10.77-.29Z"/>
  <path class="cls-1" d="M398.87,200c0,3.68-.1,7.33-.3,10.96v-21.92c.2,3.63.3,7.28.3,10.96Z"/>
</svg>