<?xml version="1.0" encoding="UTF-8"?>
<svg id="Layer_1" data-name="Layer 1" xmlns="http://www.w3.org/2000/svg" viewBox="0 0 1000 1000">
  <defs>
    <style>
      .cls-1 {
        fill: #ebebeb;
      }

      .cls-2 {
        fill: #1a1a1a;
      }
    </style>
  </defs>
  <rect class="cls-1" x="0" y="0" width="1000" height="1000"/>
  <g>
    <path class="cls-2" d="M5.49,227.53c15.1-3.31,29.87-3.51,44.4-2.17,29.39,2.71,56.92,6.57,86.38,11.04,79.98,12.14,158.69,21.87,239.41,28.37,27.58,2.22,53.05,2.05,80.13.93,25.39-2.31,49.74-5.93,73.61-14.64,26.24-8.5,46.64-24.03,67.58-42.87l-308.13,690.95,89.2-39.12c103.19-45.26,214.2-67.44,327.31-66.98,99.46.75,196.55,19.17,289.53,55.82v146.55s-989.73-.08-989.73-.08l.32-767.8Z"/>
    <path class="cls-2" d="M634.06,134.67c-33.84,20.16-67.76,35.13-104.91,46.44-90.42,27.2-180.74,17.26-272.41-.89l-109.24-21.63c-30.66-5.69-60.06-10.39-91.05-13.72-17.63-.98-34.19-1.46-51.36,1.6V4.59s989.75.12,989.75.12l.05,769.23c-89.94-31.97-182.43-49.04-277.78-50.73-45.37-.13-87.9,3.61-132.63,10.66-60.55,9.82-118.68,25.04-177.3,44.42L702.66,85.19l-68.6,49.48Z"/>
  </g>
</svg>