<?xml version="1.0" encoding="UTF-8"?>
<svg id="Layer_1" data-name="Layer 1" xmlns="http://www.w3.org/2000/svg" viewBox="0 0 694.22 102.36">
  <defs>
    <style>
      .cls-1 {
        fill: #ebebeb;
      }
    </style>
  </defs>
  <g>
    <path class="cls-1" d="M1.22,5.1h16.14v78.22h46.86v13.94H1.22V5.1Z"/>
    <path class="cls-1" d="M97.77,97.15c-5.05,0-9.55-.84-13.5-2.5-3.95-1.67-7.29-3.97-10.02-6.9-2.73-2.93-4.81-6.43-6.23-10.51-1.43-4.07-2.14-8.55-2.14-13.44s.71-9.24,2.14-13.32c1.42-4.07,3.5-7.58,6.23-10.51,2.73-2.93,6.07-5.23,10.02-6.9,3.95-1.67,8.45-2.5,13.5-2.5s9.55.84,13.5,2.5c3.95,1.67,7.29,3.97,10.02,6.9,2.73,2.93,4.81,6.44,6.23,10.51,1.42,4.07,2.14,8.51,2.14,13.32s-.71,9.37-2.14,13.44c-1.43,4.07-3.5,7.58-6.23,10.51-2.73,2.93-6.07,5.23-10.02,6.9-3.95,1.67-8.45,2.5-13.5,2.5ZM97.77,86.64c3.12,0,5.83-.66,8.13-1.97,2.3-1.31,4.19-3.04,5.67-5.18,1.48-2.14,2.57-4.54,3.27-7.21.7-2.67,1.05-5.4,1.05-8.2s-.35-5.42-1.05-8.13c-.7-2.71-1.79-5.11-3.27-7.21-1.48-2.1-3.37-3.8-5.67-5.11-2.3-1.31-5.01-1.97-8.13-1.97s-5.83.66-8.13,1.97c-2.3,1.32-4.19,3.02-5.67,5.11-1.48,2.1-2.57,4.5-3.27,7.21-.7,2.71-1.05,5.42-1.05,8.13s.35,5.53,1.05,8.2c.7,2.67,1.79,5.07,3.27,7.21,1.48,2.14,3.37,3.86,5.67,5.18,2.3,1.32,5.01,1.97,8.13,1.97Z"/>
    <path class="cls-1" d="M135.33,30.53h54.21v10.33l-38.21,44.79h40.14v11.62h-58.73v-10.33l36.92-44.79h-34.34v-11.62Z"/>
    <path class="cls-1" d="M201.93,5.1h14.72v13.94h-14.72V5.1ZM201.93,30.53h14.72v66.73h-14.72V30.53Z"/>
    <path class="cls-1" d="M227.09,30.53h13.94v9.81l.26.26c2.24-3.7,5.16-6.6,8.78-8.71,3.61-2.11,7.62-3.16,12-3.16,7.31,0,13.08,1.89,17.3,5.68,4.22,3.79,6.32,9.47,6.32,17.04v45.82h-14.72v-41.95c-.17-5.25-1.29-9.06-3.36-11.42-2.07-2.37-5.29-3.55-9.68-3.55-2.5,0-4.73.45-6.71,1.36-1.98.9-3.66,2.15-5.03,3.74-1.38,1.59-2.45,3.47-3.23,5.61-.77,2.15-1.16,4.43-1.16,6.84v39.37h-14.72V30.53Z"/>
    <path class="cls-1" d="M296.13,30.53h13.81v12.91h.26c.43-1.81,1.27-3.57,2.52-5.29,1.25-1.72,2.75-3.29,4.52-4.71,1.76-1.42,3.72-2.56,5.87-3.42,2.15-.86,4.34-1.29,6.58-1.29,1.72,0,2.9.04,3.55.13.65.09,1.31.17,2,.26v14.2c-1.03-.17-2.09-.32-3.16-.45-1.08-.13-2.13-.19-3.16-.19-2.5,0-4.84.5-7.03,1.48-2.19.99-4.11,2.45-5.74,4.39-1.64,1.94-2.93,4.32-3.87,7.16-.95,2.84-1.42,6.11-1.42,9.81v31.75h-14.72V30.53Z"/>
  </g>
  <g>
    <path class="cls-1" d="M370.35,65.76c0,3.35.57,6.21,1.71,8.57,1.14,2.37,2.73,4.31,4.78,5.82,2.04,1.51,4.39,2.61,7.04,3.31,2.65.69,5.53,1.04,8.63,1.04,3.35,0,6.2-.39,8.57-1.16,2.37-.78,4.29-1.78,5.76-3,1.47-1.22,2.53-2.63,3.18-4.23.65-1.59.98-3.2.98-4.84,0-3.35-.76-5.82-2.27-7.41-1.51-1.59-3.16-2.71-4.96-3.37-3.1-1.14-6.72-2.22-10.84-3.25-4.12-1.02-9.21-2.35-15.25-3.98-3.76-.98-6.88-2.27-9.37-3.86-2.49-1.59-4.47-3.37-5.94-5.33-1.47-1.96-2.51-4.04-3.12-6.25s-.92-4.45-.92-6.74c0-4.41.92-8.22,2.76-11.45,1.84-3.22,4.27-5.9,7.29-8.02,3.02-2.12,6.45-3.69,10.29-4.72,3.84-1.02,7.72-1.53,11.63-1.53,4.57,0,8.88.59,12.92,1.78,4.04,1.18,7.59,2.96,10.65,5.33,3.06,2.37,5.49,5.29,7.29,8.76,1.8,3.47,2.69,7.49,2.69,12.06h-15.31c-.41-5.63-2.33-9.61-5.76-11.94-3.43-2.33-7.8-3.49-13.1-3.49-1.8,0-3.63.18-5.51.55-1.88.37-3.59.98-5.14,1.84-1.55.86-2.84,2.02-3.86,3.49-1.02,1.47-1.53,3.31-1.53,5.51,0,3.1.96,5.53,2.88,7.29,1.92,1.76,4.43,3.08,7.53,3.98.33.08,1.61.43,3.86,1.04,2.24.61,4.76,1.29,7.53,2.02,2.77.73,5.49,1.45,8.14,2.14,2.65.69,4.55,1.21,5.69,1.53,2.86.9,5.35,2.12,7.47,3.67,2.12,1.55,3.9,3.33,5.33,5.33,1.43,2,2.49,4.14,3.18,6.43.69,2.29,1.04,4.57,1.04,6.86,0,4.9-1,9.08-3,12.55-2,3.47-4.63,6.31-7.9,8.51-3.27,2.2-6.98,3.82-11.14,4.84-4.16,1.02-8.41,1.53-12.74,1.53-4.98,0-9.67-.61-14.08-1.84-4.41-1.22-8.25-3.1-11.51-5.63-3.27-2.53-5.88-5.78-7.84-9.74-1.96-3.96-2.98-8.63-3.06-14.02h15.31Z"/>
    <path class="cls-1" d="M429.71,31.59h10.53V12.61h13.96v18.98h12.61v10.41h-12.61v33.8c0,1.47.06,2.74.18,3.8.12,1.06.41,1.96.86,2.69.45.73,1.12,1.29,2.02,1.65.9.37,2.12.55,3.67.55.98,0,1.96-.02,2.94-.06.98-.04,1.96-.18,2.94-.43v10.78c-1.55.16-3.06.33-4.53.49-1.47.16-2.98.24-4.53.24-3.67,0-6.63-.35-8.88-1.04-2.25-.69-4-1.71-5.27-3.06-1.27-1.35-2.12-3.04-2.57-5.08-.45-2.04-.72-4.37-.8-6.98v-37.35h-10.53v-10.41Z"/>
    <path class="cls-1" d="M530.24,94.9h-13.72v-8.82h-.25c-1.71,3.18-4.27,5.74-7.65,7.65-3.39,1.92-6.84,2.88-10.35,2.88-8.33,0-14.35-2.06-18.06-6.18-3.72-4.12-5.57-10.35-5.57-18.68V31.59h13.96v38.82c0,5.55,1.06,9.47,3.18,11.76,2.12,2.29,5.1,3.43,8.94,3.43,2.94,0,5.39-.45,7.35-1.35,1.96-.9,3.55-2.1,4.78-3.61,1.22-1.51,2.1-3.33,2.63-5.45.53-2.12.8-4.41.8-6.86V31.59h13.96v63.32Z"/>
    <path class="cls-1" d="M598.82,94.9h-13.23v-8.57h-.24c-1.88,3.67-4.61,6.31-8.2,7.9-3.59,1.59-7.39,2.39-11.39,2.39-4.98,0-9.33-.88-13.04-2.63-3.72-1.75-6.8-4.14-9.25-7.16-2.45-3.02-4.29-6.59-5.51-10.72-1.22-4.12-1.84-8.55-1.84-13.29,0-5.71.77-10.65,2.33-14.82,1.55-4.16,3.61-7.59,6.18-10.29,2.57-2.69,5.51-4.67,8.82-5.94,3.31-1.26,6.67-1.9,10.1-1.9,1.96,0,3.96.18,6,.55,2.04.37,4,.96,5.88,1.78,1.88.82,3.61,1.86,5.2,3.12,1.59,1.27,2.92,2.76,3.98,4.47h.24V7.46h13.96v87.44ZM550.08,63.92c0,2.69.35,5.35,1.04,7.96.69,2.61,1.76,4.94,3.18,6.98,1.43,2.04,3.25,3.67,5.45,4.9,2.2,1.22,4.82,1.84,7.84,1.84s5.78-.65,8.02-1.96c2.24-1.31,4.08-3.02,5.51-5.14,1.43-2.12,2.49-4.51,3.18-7.16.69-2.65,1.04-5.37,1.04-8.14,0-7.02-1.57-12.49-4.72-16.41-3.14-3.92-7.41-5.88-12.8-5.88-3.27,0-6.02.67-8.27,2.02-2.25,1.35-4.08,3.1-5.51,5.27-1.43,2.16-2.45,4.61-3.06,7.35-.61,2.74-.92,5.53-.92,8.39Z"/>
    <path class="cls-1" d="M608.62,7.46h13.96v13.23h-13.96V7.46ZM608.62,31.59h13.96v63.32h-13.96V31.59Z"/>
    <path class="cls-1" d="M661.03,96.62c-5.06,0-9.57-.84-13.53-2.51-3.96-1.67-7.31-3.98-10.04-6.92-2.74-2.94-4.82-6.45-6.25-10.53-1.43-4.08-2.14-8.57-2.14-13.47s.71-9.27,2.14-13.35c1.43-4.08,3.51-7.59,6.25-10.53,2.73-2.94,6.08-5.25,10.04-6.92,3.96-1.67,8.47-2.51,13.53-2.51s9.57.84,13.53,2.51c3.96,1.67,7.31,3.98,10.04,6.92,2.73,2.94,4.82,6.45,6.25,10.53,1.43,4.08,2.14,8.53,2.14,13.35s-.72,9.39-2.14,13.47c-1.43,4.08-3.51,7.59-6.25,10.53-2.74,2.94-6.08,5.25-10.04,6.92-3.96,1.67-8.47,2.51-13.53,2.51ZM661.03,85.6c3.1,0,5.8-.65,8.08-1.96,2.29-1.31,4.16-3.02,5.63-5.14,1.47-2.12,2.55-4.51,3.24-7.16.69-2.65,1.04-5.37,1.04-8.14s-.35-5.39-1.04-8.08c-.69-2.69-1.78-5.08-3.24-7.16s-3.35-3.78-5.63-5.08c-2.29-1.31-4.98-1.96-8.08-1.96s-5.8.65-8.08,1.96c-2.29,1.31-4.16,3-5.63,5.08-1.47,2.08-2.55,4.47-3.25,7.16-.69,2.69-1.04,5.39-1.04,8.08s.35,5.49,1.04,8.14c.69,2.65,1.78,5.04,3.25,7.16,1.47,2.12,3.35,3.84,5.63,5.14,2.28,1.31,4.98,1.96,8.08,1.96Z"/>
  </g>
</svg>